<svg width="828" height="657" viewBox="0 0 828 657" fill="none" xmlns="http://www.w3.org/2000/svg">
<path d="M810.407 249.856C873.062 491.995 618.5 543.5 338.832 584.456C59.1632 625.412 75.9999 523.5 87.4998 439.5C98.9997 355.5 202.062 18.4955 430.562 130.996C659.062 243.496 761.164 59.5504 810.407 249.856Z" fill="url(#paint0_linear)"/>
<path d="M833.407 225.857C927.864 470.68 580.831 547.456 361.831 560.456C142.832 573.457 116.57 521.956 116.57 476.009C116.57 430.061 210.831 56.9561 419.331 137.456C627.831 217.956 762.649 42.4592 833.407 225.857Z" fill="url(#paint1_linear)"/>
<path fill-rule="evenodd" clip-rule="evenodd" d="M287.31 562.431C282.653 546.776 284.156 528.515 286.653 510.282C294.863 450.307 380.542 193.273 543.687 273.596C619.02 310.685 675.11 302.647 717.128 296.625C766.108 289.605 795.966 285.326 814.891 358.461C818.207 371.277 820.265 383.323 821.153 394.656C743.062 508.769 519.335 551.107 361.831 560.456C333.99 562.109 309.264 562.719 287.31 562.431Z" fill="#4CC261" fill-opacity="0.3"/>
<path fill-rule="evenodd" clip-rule="evenodd" d="M149.629 351.412C270.882 319.59 354.006 267.389 322.328 144.966C321.592 142.119 320.838 139.39 320.068 136.774C237.804 163.307 181.758 264.837 149.629 351.412Z" fill="#4CC261" fill-opacity="0.3"/>
<path d="M445.374 256.403C445.374 264.342 447.444 271.937 451.584 279.187C455.725 286.321 462.797 294.952 472.803 305.078C487.638 296.448 497.931 288.508 503.681 281.258C509.546 273.894 512.479 265.436 512.479 255.885C512.479 247.024 509.489 239.832 503.509 234.309C497.643 228.67 489.766 225.851 479.876 225.851C469.64 225.851 461.302 228.612 454.861 234.136C448.536 239.659 445.374 247.081 445.374 256.403ZM472.112 436.261C499.829 436.261 522.829 427.4 541.116 409.68L465.73 336.494C452.965 344.318 443.937 350.819 438.646 355.998C433.356 361.061 429.445 366.527 426.916 372.396C424.385 378.264 423.12 384.939 423.12 392.418C423.12 405.882 427.548 416.584 436.403 424.524C445.374 432.348 457.277 436.261 472.112 436.261V436.261ZM393.449 393.108C393.449 378.149 397.416 364.916 405.352 353.409C413.403 341.902 427.777 330.279 448.479 318.541C438.704 307.61 432.033 299.325 428.468 293.686C425.018 288.047 422.258 282.179 420.188 276.08C418.117 269.981 417.083 263.653 417.083 257.094C417.083 239.832 422.717 226.369 433.988 216.702C445.259 207.036 460.957 202.203 481.083 202.203C499.713 202.203 514.376 207.036 525.072 216.702C535.768 226.254 541.116 239.602 541.116 256.748C541.116 269.06 537.206 280.453 529.386 290.925C521.565 301.281 508.627 311.81 490.571 322.512L560.781 390.002C567.221 382.868 572.339 374.524 576.135 364.974C580.045 355.308 583.323 344.779 585.967 333.387H614.949C607.129 366.297 595.341 391.268 579.585 408.299L631.165 458.528H591.66L559.747 427.804C546.176 440.001 532.375 448.747 518.344 454.04C504.313 459.334 488.673 461.98 471.423 461.98C446.696 461.98 427.491 455.882 413.805 443.684C400.235 431.486 393.449 414.628 393.449 393.108Z" fill="white" fill-opacity="0.212121"/>
<path d="M646.797 388.033C689.349 388.033 723.844 381.413 723.844 373.248C723.844 365.082 689.349 358.463 646.797 358.463C604.244 358.463 569.749 365.082 569.749 373.248C569.749 381.413 604.244 388.033 646.797 388.033Z" fill="#330080" fill-opacity="0.2"/>
<path d="M703.097 353.949C703.097 380.106 679.797 366.346 644.708 366.346C609.628 366.346 585.623 381.518 585.623 353.949C585.623 338.517 610.473 326.007 645.553 326.007C680.642 326.007 703.097 338.517 703.097 353.949Z" fill="url(#paint2_radial)"/>
<path d="M659.672 266.409L630.961 266.465C630.961 266.465 619.765 246.218 622.04 239.16C624.314 232.103 641.283 222.237 645.238 222.23C649.183 222.223 666.941 234.323 668.491 239.07C671.471 248.171 659.672 266.409 659.672 266.409V266.409Z" fill="url(#paint3_linear)"/>
<path d="M635.185 277.161C608.552 285.631 605.795 320.235 606.231 338.194C617.408 343.519 631.239 346.422 645.479 346.438C659.478 346.42 673.077 343.614 684.161 338.456C684.337 320.041 676.967 284.791 651.29 276.626C644.365 273.521 641.265 275.215 635.185 277.161V277.161Z" fill="url(#paint4_linear)"/>
<path d="M616.192 280.949C602.991 285.386 580.369 309.151 587.099 329.214C590.014 334.992 605.479 333.968 607.122 328.348C608.765 322.728 606.862 304.508 624.686 285.864C627.062 284.712 623.702 278.578 616.192 280.949V280.949Z" fill="url(#paint5_linear)"/>
<path d="M671.852 280.384C685.052 284.821 707.674 308.587 700.944 328.649C698.03 334.427 682.555 333.404 680.921 327.783C679.278 322.164 681.181 303.945 663.358 285.299C660.982 284.148 664.342 278.014 671.852 280.384V280.384Z" fill="url(#paint6_linear)"/>
<path d="M646.5 344.203L606.148 323.974L603.623 329.021L643.975 349.25L646.5 344.203Z" fill="#E9C6AF"/>
<path d="M641.32 344.521L681.914 324.778L684.374 329.855L643.78 349.598L641.32 344.521Z" fill="#E9C6AF"/>
<path d="M590.487 319.145L583.71 327.676L628.723 353.683L602.137 369.041L610.519 380.367L644.968 362.241L681.246 381.165L688.82 369.041L662.234 353.683L707.256 327.676L701.473 318.747L643.882 349.991L590.487 319.145Z" fill="url(#paint7_linear)"/>
<path d="M669.206 256.697C669.206 269.815 654.196 280.839 645.47 281.038C636.753 281.238 621.734 269.815 621.734 256.697C621.734 243.58 632.362 232.947 645.47 232.947C658.577 232.947 669.206 243.58 669.206 256.697Z" fill="#F0BE51"/>
<path d="M590.96 329.06C588.352 330.845 583.627 333.537 589.921 338.568C594.859 342.506 613.509 346.612 610.881 338.388C609.591 334.357 603.808 333.33 601.19 331.269C598.647 330.14 593.578 327.275 590.96 329.06V329.06Z" fill="#F0BE51"/>
<path d="M699.338 327.366C701.947 329.151 706.672 331.844 700.378 336.875C695.44 340.813 676.79 344.919 679.417 336.695C680.708 332.664 686.491 331.637 689.109 329.576C691.652 328.447 696.721 325.582 699.338 327.366V327.366Z" fill="#F0BE51"/>
<path d="M582.69 185.396C582.802 184.912 582.913 184.535 583.006 184.264C583.108 183.993 583.21 183.712 583.331 183.422C583.442 183.113 583.572 182.822 583.702 182.551C583.86 182.3 584.147 182.058 584.574 181.825C585.02 181.593 585.521 181.39 586.078 181.216C586.645 181.023 587.22 180.877 587.824 180.781C588.427 180.664 588.956 180.607 589.42 180.607C589.671 180.607 590.024 180.624 590.488 180.664C590.98 180.703 591.499 180.752 592.056 180.809C592.641 180.868 593.235 180.916 593.857 180.955C594.479 180.993 595.046 181.013 595.565 181.013C596.048 181.013 596.596 181.013 597.19 181.013C597.812 180.992 598.434 180.974 599.046 180.955C599.687 180.934 600.318 180.916 600.931 180.896C601.553 180.875 602.119 180.857 602.62 180.839C603.122 180.818 603.753 180.8 604.505 180.78C604.616 180.78 604.709 180.857 604.765 181.012C604.57 181.632 604.403 182.116 604.273 182.464C604.152 182.812 603.967 183.315 603.688 183.973C603.168 184.127 602.676 184.274 602.212 184.408C601.748 184.544 601.154 184.747 600.439 185.018C599.743 185.269 598.907 185.608 597.914 186.034C597.264 186.324 596.494 186.74 595.63 187.282C594.758 187.805 593.857 188.443 592.929 189.198C592.019 189.933 591.119 190.775 590.228 191.723C589.365 192.671 588.566 193.707 587.851 194.829C587.155 195.97 586.598 197.19 586.171 198.486C585.744 199.802 585.531 201.186 585.531 202.636C585.531 204.127 585.791 205.414 586.31 206.498C586.858 207.581 587.564 208.5 588.436 209.254C589.3 210.01 590.293 210.61 591.388 211.054C592.493 211.519 593.625 211.876 594.786 212.128C595.946 212.4 597.079 212.573 598.183 212.651C599.279 212.748 600.263 212.796 601.107 212.796C601.98 212.796 602.955 212.748 604.041 212.651C605.127 212.573 606.176 212.487 607.197 212.389C608.227 212.293 609.146 212.196 609.954 212.1C610.771 212.022 611.337 211.983 611.671 211.983L611.903 212.071C610.975 212.612 610.149 213.038 609.434 213.348C608.738 213.677 607.967 214.015 607.113 214.363C606.259 214.731 605.442 215.07 604.644 215.379C603.874 215.689 603.187 215.951 602.592 216.163C601.989 216.376 601.581 216.501 601.367 216.54C600.021 216.54 598.657 216.492 597.283 216.395C595.927 216.299 594.618 216.105 593.365 215.815C592.103 215.524 590.924 215.108 589.829 214.567C588.742 214.045 587.796 213.338 586.979 212.448C586.19 211.558 585.558 210.474 585.094 209.197C584.649 207.939 584.426 206.42 584.426 204.64C584.426 202.279 584.714 200.121 585.271 198.167C585.846 196.232 586.58 194.491 587.443 192.942C588.334 191.394 589.309 190.03 590.376 188.85C591.462 187.669 592.511 186.653 593.542 185.802C593.867 185.531 594.247 185.26 594.665 184.989C595.111 184.699 595.482 184.476 595.77 184.322H592.78C591.796 184.322 590.673 184.332 589.42 184.35C589.188 184.35 588.742 184.427 588.083 184.582C587.424 184.737 586.728 184.901 585.995 185.075C585.28 185.25 584.296 185.491 583.033 185.801C582.885 185.801 582.783 185.773 582.746 185.714C582.709 185.656 582.69 185.55 582.69 185.395V185.396Z" fill="white"/>
<path d="M654.047 187.225C655.151 187.225 656.265 187.089 657.388 186.818C658.512 186.566 659.542 186.209 660.489 185.744C661.436 185.28 662.243 184.738 662.893 184.119C663.552 183.499 663.961 182.831 664.118 182.116C664.101 180.742 663.97 179.562 663.738 178.575C663.506 177.569 663.218 176.697 662.865 175.963C662.54 175.208 662.178 174.559 661.798 174.018C661.426 173.457 661.092 172.934 660.777 172.45C660.777 172.237 660.823 171.967 660.897 171.637C660.972 171.289 661.074 170.951 661.185 170.622C661.306 170.274 661.426 169.963 661.566 169.693C661.695 169.402 661.826 169.199 661.937 169.083C662.559 169.702 663.088 170.438 663.534 171.289C663.979 172.141 664.341 173.05 664.61 174.018C664.898 174.986 665.112 175.981 665.251 177.008C665.381 178.033 665.446 179.039 665.446 180.026C665.446 181.922 665.112 183.548 664.434 184.903C663.757 186.276 662.856 187.409 661.733 188.299C660.619 189.188 659.338 189.847 657.908 190.272C656.497 190.698 655.059 190.91 653.583 190.91C652.134 190.91 650.928 190.65 649.962 190.127C649.015 189.624 648.245 188.966 647.669 188.154C647.103 187.341 646.704 186.441 646.453 185.454C646.221 184.467 646.101 183.49 646.101 182.522C646.101 181.593 646.203 180.723 646.388 179.91C646.583 179.116 646.797 178.43 647.029 177.849C647.279 177.249 647.521 176.785 647.753 176.456C648.003 176.127 648.189 175.963 648.31 175.963C648.44 175.963 648.505 176.011 648.505 176.108C648.338 176.611 648.189 177.065 648.078 177.472C647.957 177.859 647.855 178.342 647.753 178.923C647.679 179.504 647.641 180.2 647.641 181.013C647.641 181.942 647.808 182.783 648.161 183.538C648.505 184.312 648.969 184.971 649.554 185.512C650.157 186.054 650.844 186.47 651.614 186.76C652.385 187.07 653.202 187.225 654.047 187.225V187.225ZM654.836 163.191L657.76 165.194L656.284 168.241L653.378 166.239L654.836 163.191Z" fill="white"/>
<path d="M763.501 242.16C763.501 242.475 763.464 242.801 763.408 243.14C763.362 243.466 763.287 243.786 763.204 244.101C763.12 244.416 763.027 244.712 762.916 244.99C762.823 245.268 762.731 245.503 762.647 245.698C762.062 246.06 761.357 246.423 760.521 246.786C759.704 247.137 758.767 247.457 757.718 247.748C756.678 248.025 755.536 248.249 754.302 248.418C753.076 248.6 751.758 248.69 750.375 248.69C749.577 248.69 748.816 248.594 748.082 248.401C747.377 248.219 746.746 247.941 746.198 247.566C745.659 247.179 745.223 246.701 744.898 246.132C744.582 245.552 744.425 244.875 744.425 244.101C744.425 243.593 744.49 243.116 744.62 242.668C744.759 242.22 744.908 241.834 745.075 241.507C745.26 241.168 745.427 240.902 745.585 240.709C745.743 240.503 745.854 240.401 745.91 240.401C745.985 240.401 746.021 240.437 746.021 240.51C745.901 240.775 745.799 240.999 745.715 241.18C745.641 241.362 745.576 241.574 745.511 241.815C745.455 242.057 745.418 242.329 745.418 242.632C745.418 243.152 745.548 243.648 745.799 244.119C746.059 244.591 746.43 245.009 746.922 245.371C747.432 245.734 748.054 246.024 748.797 246.242C749.54 246.448 750.403 246.551 751.387 246.551C752.315 246.551 753.299 246.478 754.339 246.332C755.397 246.175 756.418 245.976 757.402 245.734C758.395 245.491 759.324 245.214 760.178 244.899C761.05 244.585 761.774 244.265 762.359 243.938C762.359 243.418 762.285 242.916 762.136 242.432C761.988 241.948 761.784 241.525 761.505 241.162C761.505 241.017 761.523 240.835 761.58 240.618C761.635 240.389 761.7 240.158 761.775 239.929C761.849 239.698 761.923 239.481 762.007 239.276C762.1 239.057 762.174 238.889 762.248 238.768C762.341 238.864 762.462 239.033 762.61 239.276C762.759 239.505 762.889 239.777 763.028 240.092C763.158 240.394 763.269 240.727 763.353 241.09C763.446 241.44 763.501 241.797 763.501 242.16L763.501 242.16ZM754.432 234.359L756.242 235.629L755.341 237.534L753.503 236.263L754.432 234.359ZM751.424 234.921L753.253 236.173L752.324 238.078L750.514 236.826L751.424 234.921Z" fill="white"/>
<path d="M544.426 293.245C544.426 293.56 544.388 293.886 544.333 294.225C544.286 294.551 544.212 294.872 544.128 295.187C544.045 295.502 543.952 295.798 543.841 296.076C543.748 296.353 543.655 296.589 543.572 296.783C542.987 297.146 542.281 297.509 541.446 297.872C540.629 298.222 539.691 298.543 538.642 298.833C537.603 299.111 536.461 299.335 535.226 299.504C534.001 299.686 532.683 299.776 531.3 299.776C530.501 299.776 529.74 299.679 529.007 299.486C528.301 299.305 527.67 299.027 527.122 298.651C526.584 298.265 526.148 297.787 525.823 297.218C525.507 296.638 525.349 295.961 525.349 295.187C525.349 294.679 525.414 294.201 525.544 293.754C525.684 293.306 525.832 292.92 525.999 292.593C526.185 292.253 526.352 291.988 526.51 291.795C526.668 291.589 526.779 291.487 526.835 291.487C526.909 291.487 526.946 291.523 526.946 291.595C526.826 291.861 526.723 292.084 526.64 292.266C526.566 292.448 526.501 292.659 526.436 292.901C526.38 293.142 526.343 293.415 526.343 293.717C526.343 294.238 526.473 294.734 526.723 295.204C526.983 295.676 527.355 296.094 527.847 296.456C528.357 296.82 528.979 297.109 529.722 297.328C530.464 297.533 531.328 297.636 532.312 297.636C533.24 297.636 534.224 297.564 535.264 297.418C536.322 297.261 537.343 297.061 538.327 296.819C539.32 296.577 540.249 296.299 541.103 295.984C541.975 295.671 542.699 295.35 543.284 295.023C543.284 294.503 543.21 294.001 543.061 293.517C542.913 293.034 542.709 292.611 542.43 292.248C542.43 292.103 542.448 291.921 542.504 291.703C542.56 291.474 542.625 291.244 542.699 291.014C542.774 290.784 542.848 290.567 542.931 290.361C543.024 290.143 543.098 289.974 543.173 289.853C543.266 289.95 543.386 290.119 543.535 290.361C543.683 290.591 543.813 290.863 543.953 291.178C544.082 291.48 544.194 291.812 544.277 292.175C544.37 292.525 544.426 292.882 544.426 293.245L544.426 293.245ZM535.356 285.445L537.166 286.715L536.266 288.62L534.428 287.349L535.356 285.445ZM532.349 286.007L534.177 287.259L533.249 289.164L531.439 287.912L532.349 286.007Z" fill="white"/>
<path d="M560.819 335.516C561.005 335.368 561.2 335.231 561.386 335.103C561.59 334.966 561.822 334.786 562.1 334.564C562.118 334.447 562.138 334.315 562.147 334.167C562.164 334.008 562.184 333.828 562.184 333.627C562.184 333.331 562.166 333.039 562.128 332.754C562.111 332.458 562.072 332.125 562.007 331.754C561.952 331.383 561.887 330.955 561.803 330.468C561.729 329.982 561.636 329.405 561.525 328.738C561.432 328.167 561.339 327.584 561.246 326.992C561.144 326.399 561.051 325.834 560.958 325.294C560.875 324.753 560.801 324.262 560.736 323.817C560.671 323.362 560.624 322.987 560.596 322.69C560.513 322.573 560.401 322.41 560.262 322.198C560.216 322.124 560.197 322.008 560.197 321.849C560.197 321.552 560.244 321.246 560.337 320.928C560.439 320.6 560.615 320.203 560.875 319.738L560.931 319.801C560.959 320.012 561.005 320.193 561.07 320.341C561.145 320.479 561.228 320.605 561.321 320.722C561.432 320.828 561.543 320.934 561.673 321.039C561.803 321.145 561.943 321.266 562.1 321.405C562.083 321.5 562.045 321.611 562.007 321.737C561.97 321.864 561.933 321.992 561.878 322.119C561.84 322.245 561.794 322.367 561.748 322.484C561.711 322.59 561.673 322.674 561.637 322.737C561.59 322.822 561.525 322.869 561.451 322.88C561.462 323.028 561.469 323.182 561.479 323.34C561.507 323.489 561.525 323.636 561.563 323.785C561.591 323.965 561.637 324.224 561.702 324.562C561.767 324.902 561.841 325.282 561.906 325.706C561.98 326.129 562.064 326.584 562.147 327.071C562.231 327.547 562.315 328.018 562.389 328.484C562.584 329.732 562.723 330.733 562.797 331.484C562.881 332.224 562.927 332.817 562.927 333.262C562.927 333.421 562.881 333.669 562.797 334.008L563.911 333.087C564.301 332.758 564.719 332.426 565.164 332.087C565.61 331.748 566.065 331.441 566.529 331.166C566.993 330.88 567.448 330.648 567.903 330.468C568.358 330.288 568.794 330.198 569.212 330.198C569.509 330.198 569.806 330.266 570.112 330.404C570.418 330.531 570.697 330.695 570.938 330.896C571.189 331.098 571.393 331.32 571.542 331.563C571.7 331.806 571.774 332.044 571.774 332.277C571.774 332.479 571.736 332.705 571.672 332.96C571.607 333.213 571.505 333.484 571.384 333.77C571.263 334.045 571.124 334.325 570.957 334.61C570.78 334.885 570.595 335.15 570.4 335.405C569.871 335.796 569.295 336.119 568.673 336.372C568.051 336.627 567.346 336.833 566.529 336.992C565.712 337.14 564.775 337.245 563.716 337.31C562.677 337.373 561.451 337.404 560.059 337.404C559.613 337.404 559.279 337.367 559.056 337.293C558.657 337.092 558.295 336.918 557.989 336.769C557.682 336.621 557.385 336.473 557.088 336.325C556.801 336.166 556.448 335.955 556.021 335.69C556.021 335.617 556.225 335.574 556.624 335.564C557.042 335.553 557.71 335.546 558.639 335.546C558.945 335.546 559.279 335.546 559.641 335.546C560.003 335.535 560.393 335.525 560.82 335.514L560.819 335.516ZM570.52 333.691C570.409 333.49 570.269 333.294 570.111 333.104C569.963 332.913 569.805 332.749 569.638 332.611C569.48 332.463 569.304 332.347 569.127 332.262C568.951 332.177 568.775 332.135 568.608 332.135C568.023 332.135 567.41 332.294 566.76 332.611C566.12 332.929 565.349 333.379 564.468 333.961C564.17 334.151 563.827 334.384 563.437 334.659C563.038 334.934 562.676 335.204 562.342 335.468C563.381 335.427 564.31 335.384 565.117 335.341C565.925 335.288 566.658 335.209 567.308 335.104C567.958 334.987 568.552 334.829 569.081 334.627C569.61 334.416 570.111 334.136 570.585 333.787L570.52 333.691Z" fill="white"/>
<path d="M587.108 261.282C586.459 261.282 585.855 261.246 585.317 261.179C584.778 261.098 584.333 260.982 583.971 260.833V260.934C583.971 262.186 583.841 263.289 583.599 264.241C583.368 265.207 583.052 266.05 582.643 266.772C582.235 267.492 581.743 268.098 581.177 268.588C580.61 269.091 580.007 269.492 579.357 269.792C578.707 270.091 578.02 270.309 577.315 270.445C576.609 270.581 575.895 270.648 575.18 270.648C574.233 270.648 573.444 270.479 572.785 270.139C572.135 269.812 571.597 269.377 571.179 268.833C570.771 268.302 570.473 267.697 570.279 267.016C570.102 266.336 570.019 265.649 570.019 264.955C570.019 264.247 570.074 263.594 570.195 262.996C570.334 262.411 570.474 261.901 570.631 261.465C570.789 261.043 571.03 260.56 571.337 260.016C571.393 259.934 571.458 259.894 571.522 259.894C571.606 259.894 571.643 259.961 571.643 260.098C571.522 260.383 571.43 260.669 571.365 260.954C571.29 261.24 571.225 261.608 571.16 262.057C571.105 262.519 571.077 263.07 571.077 263.71C571.077 264.363 571.207 264.955 571.467 265.485C571.717 266.017 572.061 266.472 572.479 266.853C572.906 267.234 573.379 267.527 573.908 267.73C574.456 267.949 575.004 268.057 575.561 268.057C576.665 268.057 577.64 267.9 578.503 267.588C579.366 267.288 580.109 266.928 580.722 266.506C581.353 266.098 581.836 265.683 582.188 265.261C582.541 264.853 582.764 264.547 582.848 264.343C582.876 264.165 582.885 263.995 582.885 263.833C582.902 263.682 582.902 263.547 582.902 263.424C582.902 262.771 582.856 262.179 582.763 261.649C582.679 261.118 582.568 260.642 582.438 260.22C582.299 259.785 582.16 259.411 582.011 259.097C581.863 258.771 581.723 258.492 581.603 258.261C581.603 258.029 581.62 257.771 581.658 257.485C581.714 257.199 581.779 256.92 581.844 256.648C581.927 256.376 582.011 256.124 582.085 255.893C582.188 255.662 582.28 255.478 582.373 255.342C582.596 255.641 582.8 255.989 582.986 256.383C583.181 256.777 583.329 257.179 583.459 257.587C583.608 257.737 583.821 257.886 584.109 258.036C584.397 258.186 584.675 258.308 584.963 258.404C585.436 257.832 585.919 257.26 586.393 256.689C586.885 256.118 587.349 255.635 587.804 255.24C588.955 254.206 590.078 253.39 591.164 252.791C592.269 252.193 593.336 251.893 594.367 251.893C594.831 251.893 595.258 251.995 595.657 252.199C596.047 252.403 596.39 252.648 596.669 252.934C596.975 253.22 597.207 253.512 597.365 253.811C597.532 254.097 597.615 254.321 597.615 254.485C597.615 254.689 597.587 254.9 597.532 255.117C597.486 255.336 597.43 255.546 597.365 255.75C597.309 255.941 597.253 256.118 597.179 256.281C597.133 256.431 597.077 256.546 597.04 256.628C596.901 256.887 596.734 257.186 596.529 257.526C596.325 257.853 596.065 258.193 595.731 258.547C595.406 258.886 595.007 259.22 594.534 259.546C594.051 259.873 593.466 260.166 592.779 260.424C592.083 260.682 591.266 260.894 590.329 261.056C589.4 261.206 588.333 261.281 587.107 261.281L587.108 261.282ZM586.022 258.649C586.245 258.677 586.486 258.71 586.765 258.75C587.043 258.778 587.35 258.791 587.656 258.791C588.677 258.791 589.624 258.73 590.497 258.608C591.379 258.486 592.177 258.322 592.882 258.118C593.597 257.9 594.228 257.655 594.758 257.383C595.305 257.098 595.732 256.798 596.066 256.485C595.937 256.295 595.788 256.077 595.612 255.832C595.454 255.588 595.259 255.363 595.045 255.158C594.841 254.941 594.6 254.757 594.33 254.608C594.07 254.458 593.773 254.383 593.449 254.383C593.189 254.383 592.882 254.424 592.511 254.506C592.149 254.587 591.759 254.71 591.351 254.873C590.942 255.023 590.525 255.207 590.107 255.424C589.689 255.641 589.29 255.893 588.919 256.179C588.352 256.615 587.832 257.037 587.35 257.444C586.895 257.853 586.449 258.254 586.022 258.649V258.649Z" fill="white"/>
<path d="M695.291 251.872C695.653 251.872 695.959 251.89 696.21 251.927C696.479 251.952 696.711 251.993 696.915 252.054C697.138 252.115 697.333 252.193 697.5 252.29C697.676 252.375 697.871 252.477 698.057 252.598C698.447 252.84 698.735 253.07 698.93 253.288C699.125 253.493 699.217 253.645 699.217 253.741C699.217 253.813 699.18 253.868 699.097 253.905C698.828 253.795 698.614 253.705 698.456 253.633C698.298 253.56 698.131 253.499 697.936 253.45C697.741 253.39 697.556 253.36 697.37 253.36C696.832 253.36 696.293 253.426 695.755 253.56C695.235 253.693 694.762 253.856 694.325 254.049C693.898 254.231 693.545 254.418 693.258 254.611C692.979 254.794 692.794 254.993 692.71 255.211C692.71 255.343 692.738 255.507 692.803 255.7C692.877 255.894 692.951 256.057 693.016 256.19C693.211 256.517 693.471 256.825 693.777 257.116C694.093 257.393 694.437 257.641 694.799 257.859C695.17 258.077 695.551 258.252 695.94 258.385C696.34 258.506 696.711 258.566 697.064 258.566C697.259 258.434 697.5 258.27 697.806 258.077C698.122 257.884 698.456 257.678 698.8 257.46C699.152 257.242 699.514 257.031 699.876 256.825C700.238 256.608 700.573 256.413 700.87 256.244C701.176 256.075 701.557 255.882 702.011 255.664C702.086 255.664 702.132 255.707 702.16 255.791C702.011 256.287 701.881 256.668 701.779 256.934C701.677 257.2 701.519 257.581 701.306 258.077C700.786 258.415 700.34 258.699 699.978 258.93C699.635 259.159 699.245 259.419 698.818 259.71C698.4 260 697.992 260.303 697.593 260.617C697.119 261.004 696.599 261.493 696.033 262.086C695.458 262.679 694.928 263.368 694.436 264.154C693.954 264.952 693.545 265.829 693.22 266.785C692.896 267.753 692.728 268.799 692.728 269.923C692.728 270.866 692.923 271.731 693.313 272.518C693.712 273.316 694.307 273.999 695.105 274.568C695.903 275.136 696.915 275.577 698.131 275.892C699.356 276.206 700.795 276.363 702.466 276.363C702.772 276.363 703.125 276.353 703.534 276.327C703.961 276.302 704.397 276.273 704.861 276.237C705.316 276.201 705.78 276.158 706.235 276.11C706.699 276.061 707.117 276.019 707.507 275.983C707.897 275.946 708.221 275.917 708.5 275.892C708.779 275.868 708.964 275.855 709.048 275.855C709.122 275.855 709.177 275.88 709.215 275.928C708.602 276.267 708.073 276.539 707.618 276.744C707.154 276.95 706.653 277.168 706.114 277.398C705.567 277.627 705.047 277.839 704.555 278.032C704.053 278.226 703.626 278.383 703.264 278.504C702.902 278.637 702.67 278.704 702.577 278.704C701.696 278.704 700.823 278.668 699.96 278.595C699.106 278.523 698.279 278.389 697.5 278.196C696.729 278.003 696.005 277.73 695.337 277.379C694.678 277.041 694.093 276.593 693.601 276.037C693.118 275.493 692.738 274.833 692.459 274.06C692.181 273.286 692.041 272.366 692.041 271.302C692.041 270.056 692.153 268.901 692.385 267.837C692.617 266.773 692.895 265.793 693.239 264.898C693.592 264.015 693.972 263.217 694.381 262.503C694.789 261.778 695.179 261.143 695.541 260.599C695.439 260.563 695.281 260.489 695.049 260.381C694.817 260.272 694.557 260.133 694.251 259.964C693.963 259.794 693.657 259.595 693.35 259.365C693.035 259.135 692.738 258.881 692.478 258.603C692.209 258.313 691.995 257.998 691.828 257.66C691.651 257.321 691.568 256.958 691.568 256.571C691.568 256.063 691.689 255.531 691.911 254.975C692.143 254.418 692.441 253.91 692.803 253.451C693.165 252.992 693.564 252.616 694 252.326C694.436 252.024 694.863 251.872 695.29 251.872L695.291 251.872ZM692.989 246.103L694.817 247.356L693.889 249.261L692.079 248.009L692.989 246.103Z" fill="white"/>
<path d="M726.564 303.211C726.833 303.211 727.066 303.225 727.251 303.252C727.456 303.269 727.632 303.301 727.79 303.346C727.948 303.392 728.096 303.45 728.217 303.524C728.356 303.587 728.495 303.664 728.644 303.755C728.931 303.936 729.154 304.108 729.293 304.271C729.442 304.426 729.516 304.539 729.516 304.611C729.516 304.666 729.479 304.707 729.414 304.734C729.219 304.652 729.061 304.584 728.941 304.53C728.82 304.475 728.69 304.43 728.551 304.394C728.402 304.348 728.263 304.326 728.124 304.326C727.715 304.326 727.316 304.376 726.917 304.475C726.527 304.575 726.165 304.697 725.84 304.842C725.525 304.979 725.255 305.119 725.042 305.265C724.828 305.4 724.698 305.55 724.634 305.714C724.634 305.813 724.651 305.935 724.698 306.08C724.754 306.226 724.81 306.349 724.865 306.448C725.005 306.694 725.199 306.925 725.432 307.142C725.673 307.351 725.924 307.537 726.193 307.7C726.471 307.863 726.759 307.995 727.047 308.094C727.353 308.185 727.632 308.231 727.892 308.231C728.04 308.13 728.226 308.009 728.449 307.863C728.69 307.718 728.941 307.564 729.201 307.4C729.461 307.238 729.73 307.079 729.999 306.925C730.277 306.761 730.519 306.617 730.751 306.489C730.973 306.362 731.261 306.217 731.605 306.054C731.66 306.054 731.698 306.085 731.716 306.149C731.605 306.521 731.512 306.807 731.428 307.007C731.354 307.205 731.243 307.492 731.076 307.863C730.686 308.118 730.351 308.33 730.082 308.503C729.822 308.675 729.535 308.87 729.21 309.088C728.894 309.306 728.588 309.532 728.291 309.768C727.938 310.059 727.548 310.426 727.121 310.871C726.694 311.315 726.295 311.832 725.924 312.422C725.562 313.02 725.255 313.678 725.014 314.395C724.763 315.12 724.643 315.905 724.643 316.748C724.643 317.456 724.791 318.104 725.079 318.694C725.376 319.292 725.831 319.805 726.425 320.231C727.019 320.658 727.78 320.988 728.699 321.224C729.609 321.46 730.695 321.578 731.948 321.578C732.171 321.578 732.44 321.568 732.746 321.55C733.062 321.533 733.396 321.509 733.74 321.481C734.083 321.453 734.427 321.423 734.77 321.387C735.123 321.35 735.438 321.319 735.726 321.291C736.014 321.263 736.265 321.242 736.478 321.223C736.682 321.205 736.822 321.195 736.887 321.195C736.933 321.195 736.979 321.212 737.007 321.249C736.552 321.503 736.153 321.707 735.81 321.862C735.466 322.016 735.086 322.178 734.677 322.351C734.269 322.524 733.879 322.682 733.508 322.828C733.136 322.973 732.821 323.091 732.542 323.182C732.273 323.281 732.097 323.331 732.032 323.331C731.363 323.331 730.713 323.303 730.073 323.249C729.423 323.195 728.81 323.095 728.216 322.95C727.641 322.804 727.102 322.601 726.601 322.337C726.1 322.084 725.673 321.748 725.292 321.33C724.93 320.923 724.652 320.428 724.438 319.848C724.234 319.267 724.123 318.577 724.123 317.779C724.123 316.845 724.216 315.979 724.383 315.18C724.559 314.383 724.772 313.648 725.023 312.976C725.283 312.314 725.571 311.716 725.877 311.181C726.193 310.637 726.48 310.16 726.75 309.752C726.675 309.724 726.555 309.671 726.388 309.589C726.211 309.507 726.016 309.403 725.784 309.276C725.571 309.149 725.339 308.999 725.107 308.826C724.874 308.654 724.652 308.464 724.457 308.255C724.253 308.038 724.095 307.802 723.965 307.547C723.835 307.294 723.77 307.021 723.77 306.732C723.77 306.35 723.863 305.951 724.03 305.534C724.206 305.116 724.429 304.736 724.698 304.391C724.967 304.046 725.274 303.765 725.599 303.548C725.923 303.321 726.248 303.208 726.564 303.208L726.564 303.211ZM724.838 298.884L726.212 299.823L725.515 301.251L724.151 300.313L724.838 298.884Z" fill="white"/>
<path d="M763.863 292.54C763.863 293.22 763.817 293.837 763.733 294.391C763.659 294.934 763.538 295.324 763.371 295.56C762.953 295.796 762.378 296.051 761.645 296.323C760.911 296.595 760.076 296.844 759.138 297.07C758.21 297.297 757.198 297.479 756.121 297.615C755.054 297.751 753.968 297.819 752.872 297.819C752.39 297.819 751.907 297.756 751.415 297.629C750.932 297.511 750.477 297.33 750.06 297.084C749.651 296.839 749.326 296.576 749.094 296.295C748.853 296.005 748.686 295.724 748.574 295.452C748.463 295.17 748.417 294.776 748.417 294.268C748.417 293.769 748.5 293.334 748.667 292.961C748.853 292.581 749.02 292.291 749.159 292.091C749.307 291.882 749.419 291.723 749.512 291.615C749.558 291.542 749.605 291.506 749.633 291.506C749.679 291.506 749.707 291.537 749.707 291.602C749.707 291.655 749.661 291.773 749.568 291.955C749.484 292.127 749.428 292.272 749.41 292.39C749.326 292.636 749.28 292.903 749.28 293.193C749.28 293.438 749.336 293.71 749.428 294.009C749.54 294.309 749.67 294.563 749.827 294.772C749.985 294.971 750.245 295.193 750.626 295.438C751.006 295.683 751.498 295.878 752.083 296.023C752.687 296.159 753.42 296.227 754.302 296.227C755.007 296.227 755.759 296.177 756.557 296.078C757.365 295.978 758.163 295.842 758.953 295.669C759.742 295.497 760.484 295.297 761.199 295.071C761.914 294.844 762.536 294.604 763.056 294.35C763.056 294.232 763.045 294.086 763.018 293.914C763.001 293.733 762.972 293.551 762.935 293.37C762.898 293.18 762.86 292.999 762.814 292.826C762.768 292.653 762.731 292.513 762.693 292.404C762.619 292.73 762.526 292.966 762.406 293.112C762.285 293.247 762.155 293.356 761.997 293.438C761.839 293.52 761.682 293.575 761.505 293.602C761.338 293.63 761.171 293.642 761.004 293.642C760.865 293.642 760.726 293.606 760.586 293.534C760.447 293.462 760.317 293.366 760.206 293.248C760.095 293.12 760.002 292.976 759.918 292.812C759.844 292.65 759.807 292.477 759.807 292.296C759.807 292.113 759.824 291.928 759.853 291.737C759.881 291.538 759.928 291.347 759.974 291.166C760.02 290.985 760.057 290.817 760.104 290.663C760.159 290.499 760.215 290.364 760.252 290.254C760.308 290.146 760.373 290.032 760.447 289.914C760.531 289.787 760.624 289.674 760.716 289.574C760.818 289.475 760.93 289.393 761.06 289.329C761.189 289.266 761.329 289.234 761.496 289.234C761.728 289.234 761.951 289.275 762.164 289.357C762.378 289.439 762.564 289.547 762.721 289.683C762.833 289.792 762.963 289.941 763.102 290.132C763.232 290.314 763.352 290.526 763.464 290.772C763.585 291.017 763.678 291.289 763.752 291.588C763.826 291.887 763.863 292.205 763.863 292.54L763.863 292.54ZM762.313 291.397C762.118 291.207 761.942 291.075 761.784 291.002C761.617 290.921 761.44 290.88 761.264 290.88C761.097 290.88 760.958 290.939 760.837 291.057C760.735 291.166 760.642 291.274 760.568 291.383C760.493 291.492 760.429 291.629 760.364 291.792C760.54 291.937 760.698 292.036 760.837 292.091C760.985 292.146 761.162 292.173 761.375 292.173C761.542 292.173 761.728 292.086 761.932 291.914C762.127 291.732 762.257 291.561 762.313 291.397L762.313 291.397ZM759.918 285.683L761.292 286.621L760.596 288.05L759.24 287.111L759.918 285.683Z" fill="white"/>
<path d="M709.81 198.544C709.67 198.544 709.568 198.467 709.485 198.312C709.429 198.157 709.345 197.983 709.225 197.79C709.114 197.596 708.937 197.423 708.705 197.267C708.492 197.112 708.185 197.035 707.777 197.035C707.192 197.035 706.496 197.239 705.688 197.645C704.871 198.032 704.101 198.525 703.367 199.125C702.634 199.706 702.003 200.335 701.483 201.012C700.954 201.67 700.694 202.27 700.694 202.812C700.694 203.315 701.01 203.721 701.622 204.03C702.244 204.321 703.107 204.573 704.203 204.786C704.537 204.863 704.862 204.931 705.196 204.989C705.539 205.027 705.985 205.095 706.523 205.191C707.183 205.308 707.721 205.463 708.12 205.656C708.547 205.83 708.881 206.034 709.113 206.266C709.345 206.479 709.494 206.72 709.578 206.991C709.652 207.243 709.689 207.504 709.689 207.775C709.652 208.142 709.596 208.558 709.512 209.023C709.438 209.487 709.336 209.952 709.196 210.416C709.076 210.862 708.937 211.287 708.76 211.693C708.584 212.1 708.38 212.429 708.147 212.681C707.86 213.01 707.414 213.416 706.82 213.899C706.217 214.383 705.502 214.887 704.667 215.409C703.859 215.932 702.958 216.454 701.974 216.976C700.991 217.498 699.96 217.963 698.902 218.37C697.834 218.795 696.748 219.134 695.653 219.386C694.567 219.656 693.518 219.792 692.515 219.792C691.336 219.792 690.232 219.579 689.211 219.154C688.208 218.727 687.326 218.109 686.565 217.296C685.832 216.483 685.256 215.487 684.829 214.306C684.402 213.126 684.188 211.781 684.188 210.271C684.188 209.187 684.355 208.124 684.68 207.079C685.014 206.034 685.377 205.105 685.785 204.292C686.212 203.46 686.621 202.792 687.001 202.289C687.391 201.786 687.632 201.535 687.725 201.535C687.846 201.535 687.902 201.583 687.902 201.68C687.456 202.589 687.094 203.353 686.797 203.973C686.528 204.592 686.277 205.27 686.045 206.004C685.832 206.74 685.73 207.465 685.73 208.181C685.73 209.594 685.953 210.804 686.398 211.809C686.844 212.816 687.401 213.638 688.078 214.277C688.775 214.915 689.517 215.38 690.315 215.671C691.123 215.98 691.894 216.135 692.636 216.135C693.639 216.135 694.641 216.028 695.653 215.816C696.674 215.603 697.658 215.332 698.605 215.003C699.552 214.674 700.462 214.296 701.334 213.871C702.207 213.445 703.005 213.019 703.738 212.593C704.481 212.168 705.122 211.752 705.688 211.345C706.263 210.959 706.728 210.63 707.08 210.359C707.349 210.146 707.563 209.904 707.721 209.633C707.869 209.362 707.962 209.159 707.981 209.023C707.452 208.656 707.006 208.442 706.616 208.385C705.846 208.269 705.047 208.162 704.24 208.065C703.423 207.949 702.662 207.794 701.947 207.601C701.019 207.369 700.313 206.972 699.83 206.411C699.366 205.85 699.134 205.202 699.134 204.466C699.134 203.847 699.236 203.17 699.45 202.435C699.682 201.699 699.961 200.983 700.295 200.286C700.657 199.474 701.214 198.652 701.947 197.819C702.68 196.987 703.46 196.233 704.296 195.555C705.15 194.858 705.985 194.297 706.821 193.872C707.665 193.427 708.399 193.204 708.993 193.204C709.364 193.204 709.67 193.263 709.921 193.379C710.172 193.495 710.367 193.64 710.506 193.813C710.654 193.988 710.766 194.191 710.822 194.424C710.877 194.636 710.905 194.84 710.905 195.033C710.905 195.42 710.868 195.681 710.794 195.817C710.525 196.823 710.311 197.529 710.153 197.935C710.024 198.341 709.903 198.545 709.81 198.545L709.81 198.544ZM699.041 220.663L701.947 222.694L700.49 225.742L697.566 223.71L699.041 220.663ZM694.224 221.562L697.157 223.565L695.681 226.613L692.776 224.61L694.224 221.562Z" fill="white"/>
<path d="M544.194 232.142C544.138 232.142 544.082 232.106 544.045 232.033C544.017 231.961 543.98 231.879 543.924 231.788C543.869 231.697 543.785 231.616 543.683 231.543C543.581 231.47 543.433 231.434 543.247 231.434C542.978 231.434 542.643 231.53 542.263 231.72C541.882 231.901 541.52 232.132 541.177 232.414C540.833 232.686 540.536 232.98 540.295 233.298C540.053 233.606 539.924 233.888 539.924 234.141C539.924 234.377 540.072 234.568 540.36 234.714C540.657 234.849 541.056 234.967 541.576 235.066C541.724 235.103 541.882 235.135 542.031 235.162C542.198 235.18 542.411 235.213 542.662 235.257C542.968 235.312 543.219 235.384 543.405 235.475C543.609 235.557 543.767 235.652 543.869 235.761C543.98 235.861 544.054 235.974 544.092 236.101C544.129 236.219 544.147 236.341 544.147 236.468C544.13 236.641 544.101 236.836 544.064 237.053C544.027 237.271 543.971 237.489 543.915 237.706C543.86 237.915 543.786 238.115 543.711 238.306C543.628 238.496 543.535 238.65 543.424 238.768C543.284 238.922 543.08 239.113 542.802 239.339C542.514 239.566 542.18 239.802 541.79 240.047C541.409 240.291 540.991 240.537 540.527 240.782C540.063 241.026 539.58 241.244 539.088 241.435C538.587 241.635 538.077 241.793 537.566 241.911C537.056 242.038 536.564 242.102 536.09 242.102C535.542 242.102 535.023 242.001 534.54 241.801C534.076 241.603 533.658 241.312 533.305 240.931C532.962 240.55 532.693 240.083 532.488 239.529C532.293 238.976 532.191 238.346 532.191 237.638C532.191 237.13 532.266 236.631 532.423 236.142C532.571 235.652 532.748 235.217 532.934 234.835C533.138 234.445 533.324 234.133 533.509 233.897C533.695 233.661 533.806 233.543 533.853 233.543C533.899 233.543 533.927 233.564 533.927 233.611C533.723 234.037 533.546 234.396 533.416 234.686C533.287 234.976 533.166 235.294 533.064 235.639C532.962 235.983 532.915 236.323 532.915 236.658C532.915 237.321 533.017 237.887 533.222 238.359C533.435 238.831 533.695 239.216 534.011 239.515C534.336 239.816 534.688 240.033 535.06 240.169C535.44 240.314 535.802 240.387 536.146 240.387C536.619 240.387 537.093 240.336 537.566 240.237C538.039 240.137 538.503 240.01 538.949 239.856C539.395 239.702 539.822 239.525 540.23 239.325C540.639 239.125 541.01 238.927 541.353 238.727C541.697 238.527 542.003 238.332 542.263 238.142C542.542 237.961 542.755 237.806 542.922 237.679C543.043 237.579 543.145 237.465 543.219 237.339C543.294 237.212 543.331 237.116 543.34 237.053C543.099 236.88 542.885 236.781 542.7 236.754C542.337 236.699 541.966 236.649 541.586 236.605C541.205 236.55 540.852 236.477 540.509 236.386C540.082 236.277 539.748 236.092 539.515 235.829C539.302 235.565 539.191 235.261 539.191 234.917C539.191 234.627 539.246 234.309 539.339 233.965C539.45 233.62 539.58 233.284 539.738 232.958C539.905 232.577 540.165 232.192 540.509 231.801C540.861 231.411 541.223 231.057 541.613 230.74C542.012 230.414 542.412 230.15 542.802 229.951C543.191 229.742 543.535 229.638 543.813 229.638C543.99 229.638 544.138 229.666 544.25 229.72C544.37 229.774 544.463 229.842 544.528 229.923C544.593 230.005 544.649 230.101 544.677 230.21C544.705 230.309 544.714 230.405 544.714 230.495C544.714 230.677 544.696 230.799 544.658 230.862C544.537 231.334 544.435 231.665 544.361 231.855C544.296 232.046 544.24 232.141 544.194 232.141L544.194 232.142ZM539.153 242.51L540.508 243.462L539.831 244.891L538.457 243.938L539.153 242.51ZM536.897 242.932L538.271 243.871L537.575 245.299L536.22 244.36L536.897 242.932Z" fill="white"/>
<path d="M330.715 485.869C385.752 485.869 430.368 474.856 430.368 461.27C430.368 447.685 385.752 436.672 330.715 436.672C275.679 436.672 231.063 447.685 231.063 461.27C231.063 474.856 275.679 485.869 330.715 485.869Z" fill="#330080" fill-opacity="0.2"/>
<path d="M321.793 369.54C295.677 377.845 295.189 413.161 295.616 430.771C306.58 435.993 317.923 443.719 331.893 443.734C345.62 443.715 354.528 435.256 365.395 430.198C365.565 412.141 362.763 377.021 337.585 369.014C330.797 365.97 327.762 367.632 321.793 369.54V369.54Z" fill="url(#paint8_linear)"/>
<path d="M354.515 374.037C365.594 378.387 379.322 389.913 380.499 409.586C377.674 414.241 362.884 405.155 362.086 408.597C361.287 412.039 363.663 397.139 346.189 378.856C343.858 377.727 347.155 371.712 354.515 374.037V374.037Z" fill="url(#paint9_linear)"/>
<path d="M303.172 373.254C292.093 377.604 278.365 389.13 277.188 408.803C280.013 413.458 294.803 404.372 295.602 407.814C296.401 411.256 294.024 396.356 311.498 378.074C313.83 376.944 310.532 370.93 303.172 373.254V373.254Z" fill="url(#paint10_linear)"/>
<path d="M278.878 415.251L250.94 463.67L244.233 459.795L272.171 411.377L278.878 415.251Z" fill="url(#paint11_linear)"/>
<path d="M382.539 415.251L410.476 463.67L417.183 459.795L389.246 411.377L382.539 415.251Z" fill="url(#paint12_linear)"/>
<path d="M300.971 396.905C304.225 399.126 306.282 396.731 302.265 405.929C299.953 411.219 272.193 419.66 276.182 405.705C277.63 400.64 278.403 401.769 281.668 399.204C284.828 397.8 297.715 394.685 300.971 396.905V396.905Z" fill="#F0BE51"/>
<path d="M356.368 395.633C353.112 397.854 351.055 395.459 355.074 404.656C357.384 409.947 385.145 418.388 381.155 404.432C379.707 399.368 378.935 400.497 375.67 397.932C372.51 396.528 359.622 393.412 356.368 395.633V395.633Z" fill="#F0BE51"/>
<path d="M259.896 410.953H401.522V418.703H259.896V410.953Z" fill="url(#paint13_linear)"/>
<path d="M291.793 373.897H369.057L364.596 407.281H296.254L291.793 373.897Z" fill="url(#paint14_linear)"/>
<path d="M296.034 406.922H364.524V410.953H296.034V406.922Z" fill="url(#paint15_linear)"/>
<path d="M344.037 359.237L315.884 359.292C315.884 359.292 304.899 339.438 307.131 332.517C309.364 325.597 326.002 315.923 329.875 315.915C333.75 315.906 351.162 327.774 352.684 332.429C355.602 341.354 344.037 359.236 344.037 359.236V359.237Z" fill="url(#paint16_linear)"/>
<path d="M353.27 348.657C353.27 361.519 342.849 369.206 329.994 369.206C317.139 369.206 306.719 361.519 306.719 348.657C306.719 335.794 317.139 325.367 329.994 325.367C342.849 325.367 353.27 335.794 353.27 348.657Z" fill="#F0BE51"/>
<path d="M384.728 437.16C383.817 455.908 363.291 457.639 335.845 464.998C308.398 472.356 300.345 468.271 298.635 458.328C297.45 451.432 318.181 447.764 342.042 433.231C366.314 418.448 385.218 427.083 384.728 437.16V437.16Z" fill="url(#paint17_linear)"/>
<path d="M293.9 454.303C290.911 455.145 283.125 461.682 290.027 465.537C296.772 469.305 315.13 479.424 313.99 471.489C313.4 467.381 309.29 464.361 307.199 461.845C305.456 459.75 296.887 453.46 293.9 454.303Z" fill="#F0BE51"/>
<path d="M275.8 441.15C276.711 459.897 292.258 458.03 319.705 465.389C347.151 472.747 358.333 469.445 360.043 459.503C361.23 452.607 340.498 448.939 316.637 434.406C292.365 419.622 275.31 431.073 275.8 441.15V441.15Z" fill="url(#paint18_linear)"/>
<path d="M360.186 452.724C364.396 452.078 372.153 457.949 366.096 463.031C360.178 467.999 344.044 481.385 343.676 473.377C343.484 469.231 346.955 465.493 348.537 462.629C349.856 460.243 355.874 453.386 360.186 452.724V452.724Z" fill="#F0BE51"/>
<path d="M336.253 388.587C335.913 390.664 332.549 393.197 328.964 393.197C325.38 393.197 322.376 392.19 322.374 390.085C322.373 387.977 323.724 389.513 328.865 386.273C332.232 384.15 336.987 384.092 336.253 388.587V388.587Z" fill="url(#paint19_linear)"/>
<path d="M337.286 384.84C337.23 384.84 337.174 384.854 337.123 384.882C337.073 384.905 337.029 384.946 336.996 384.992C336.822 385.237 336.345 385.562 335.926 385.779C335.717 385.886 335.521 385.972 335.387 386.024C335.334 386.048 335.304 386.057 335.276 386.066C335.212 386.069 335.151 386.089 335.097 386.122C335.044 386.16 335.002 386.206 334.974 386.263C334.968 386.277 334.954 386.31 334.954 386.31C334.954 386.311 334.939 386.378 334.939 386.378C334.939 386.378 334.964 386.561 334.965 386.561C334.965 386.561 335.078 386.704 335.078 386.704L335.135 386.736C335.136 386.736 335.168 386.75 335.181 386.755C335.292 386.792 335.315 386.773 335.34 386.769C335.391 386.764 335.412 386.755 335.441 386.745C335.499 386.727 335.564 386.704 335.643 386.673C335.803 386.611 336.015 386.517 336.246 386.398C336.71 386.16 337.246 385.842 337.565 385.397C337.603 385.345 337.626 385.284 337.632 385.22C337.637 385.156 337.625 385.092 337.595 385.034C337.567 384.977 337.523 384.928 337.468 384.894C337.414 384.862 337.35 384.842 337.286 384.841L337.286 384.84Z" fill="url(#paint20_linear)"/>
<path d="M338.356 385.872C339.121 386.216 340.037 387.509 340.02 387.757C340.002 388.006 338.271 388.11 337.506 387.767C336.742 387.423 335.668 386.271 335.843 385.881C336.018 385.491 337.592 385.529 338.356 385.871V385.872Z" fill="url(#paint21_linear)"/>
<path d="M414.863 375.675L413.147 356.421H432L430.282 375.672L422.562 377.814L414.863 375.675Z" fill="white"/>
<path d="M422.574 365.136H419.451L419.235 362.718H422.574V360.356H416.655L416.712 360.991L417.292 367.498H422.574V365.136ZM422.574 371.269L422.563 371.272L419.934 370.562L419.767 368.679H417.398L417.728 372.387L422.563 373.729L422.574 373.726V371.269Z" fill="#E6E6E6"/>
<path d="M422.566 365.136V367.498H425.471L425.198 370.56L422.566 371.272V373.728L427.404 372.387L427.44 371.988L427.994 365.771L428.052 365.137H427.416L422.566 365.136ZM422.566 360.356V362.718H428.266L428.314 362.187L428.422 360.991L428.478 360.356H422.566Z" fill="#F6F6F6"/>
<path d="M423.295 414.081C424.347 414.081 425.199 413.229 425.199 412.177C425.199 411.124 424.347 410.272 423.295 410.272C422.243 410.272 421.391 411.124 421.391 412.177C421.391 413.229 422.243 414.081 423.295 414.081Z" fill="white"/>
<path d="M431.741 408.508C431.312 408.351 430.863 408.195 430.395 408.059C430.512 407.591 430.61 407.121 430.687 406.673C431.098 404.096 430.648 402.282 429.4 401.579C429.03 401.365 428.62 401.267 428.152 401.267C426.787 401.267 425.05 402.282 423.295 403.98C421.54 402.282 419.804 401.267 418.438 401.267C417.97 401.267 417.561 401.365 417.19 401.579C415.942 402.301 415.493 404.116 415.903 406.673C415.981 407.121 416.078 407.591 416.196 408.059C415.728 408.195 415.279 408.332 414.849 408.508C412.411 409.444 411.085 410.732 411.085 412.177C411.085 413.621 412.431 414.909 414.849 415.845C415.279 416.002 415.728 416.158 416.196 416.294C416.078 416.763 415.981 417.232 415.903 417.68C415.493 420.257 415.942 422.071 417.19 422.774C417.561 422.988 417.97 423.086 418.438 423.086C419.824 423.086 421.559 422.071 423.295 420.373C425.05 422.071 426.787 423.086 428.152 423.086C428.62 423.086 429.03 422.988 429.4 422.774C430.648 422.052 431.098 420.237 430.687 417.68C430.61 417.232 430.512 416.763 430.395 416.294C430.863 416.158 431.312 416.022 431.741 415.845C434.179 414.909 435.506 413.621 435.506 412.177C435.506 410.732 434.179 409.444 431.741 408.508ZM428.854 402.555C429.654 403.024 429.927 404.468 429.595 406.517C429.537 406.927 429.44 407.356 429.322 407.805C428.308 407.571 427.235 407.415 426.104 407.317C425.441 406.38 424.758 405.541 424.075 404.78C425.519 403.355 426.982 402.38 428.171 402.38C428.425 402.38 428.659 402.438 428.854 402.554V402.555ZM426.669 414.128C426.319 414.753 425.909 415.377 425.48 416.002C424.758 416.06 424.036 416.08 423.295 416.08C422.534 416.08 421.813 416.058 421.111 416.002C420.682 415.377 420.292 414.753 419.94 414.128C419.57 413.484 419.219 412.82 418.907 412.177C419.219 411.533 419.57 410.869 419.94 410.225C420.292 409.601 420.701 408.976 421.13 408.351C421.852 408.293 422.573 408.273 423.315 408.273C424.075 408.273 424.797 408.296 425.5 408.351C425.929 408.976 426.319 409.601 426.669 410.225C427.041 410.869 427.391 411.533 427.703 412.177C427.372 412.82 427.041 413.465 426.669 414.128V414.128ZM428.288 413.484C428.581 414.168 428.815 414.831 429.03 415.494C428.367 415.651 427.664 415.768 426.923 415.865C427.157 415.494 427.411 415.104 427.625 414.694C427.86 414.284 428.074 413.874 428.288 413.484V413.484ZM423.295 418.773C422.827 418.266 422.379 417.72 421.95 417.153C422.398 417.176 422.847 417.192 423.295 417.192C423.744 417.192 424.192 417.17 424.641 417.153C424.212 417.72 423.763 418.266 423.295 418.773ZM419.667 415.845C418.926 415.748 418.224 415.631 417.561 415.475C417.776 414.831 418.009 414.148 418.302 413.465C418.516 413.855 418.731 414.265 418.965 414.656C419.199 415.085 419.433 415.455 419.667 415.846V415.845ZM418.302 410.869C418.009 410.186 417.776 409.523 417.561 408.859C418.224 408.702 418.926 408.586 419.667 408.488C419.433 408.859 419.18 409.249 418.965 409.66C418.731 410.069 418.516 410.479 418.302 410.869V410.869ZM423.295 405.58C423.763 406.088 424.212 406.634 424.641 407.2C424.192 407.177 423.744 407.161 423.295 407.161C422.847 407.161 422.398 407.183 421.95 407.2C422.379 406.634 422.827 406.088 423.295 405.58ZM427.625 409.678L426.923 408.508C427.664 408.605 428.367 408.722 429.03 408.878C428.815 409.522 428.581 410.205 428.288 410.888C428.074 410.479 427.86 410.069 427.625 409.678V409.678ZM416.995 406.517C416.664 404.468 416.936 403.024 417.736 402.555C417.931 402.438 418.165 402.38 418.419 402.38C419.589 402.38 421.052 403.336 422.515 404.78C421.833 405.522 421.15 406.381 420.486 407.317C419.356 407.415 418.283 407.591 417.268 407.805C417.151 407.356 417.073 406.927 416.995 406.517L416.995 406.517ZM412.178 412.177C412.178 411.259 413.29 410.283 415.24 409.562C415.63 409.405 416.059 409.268 416.488 409.152C416.8 410.128 417.19 411.162 417.658 412.197C417.19 413.231 416.781 414.246 416.488 415.222C413.797 414.44 412.178 413.269 412.178 412.177V412.177ZM417.736 421.799C416.936 421.33 416.664 419.885 416.995 417.836C417.054 417.426 417.151 416.997 417.268 416.548C418.283 416.783 419.356 416.939 420.486 417.036C421.15 417.973 421.833 418.813 422.515 419.573C421.071 420.998 419.609 421.974 418.419 421.974C418.165 421.974 417.931 421.915 417.736 421.799V421.799ZM429.595 417.836C429.927 419.885 429.654 421.33 428.854 421.799C428.659 421.915 428.425 421.973 428.171 421.973C427.002 421.973 425.538 421.017 424.075 419.573C424.758 418.831 425.441 417.973 426.104 417.036C427.235 416.938 428.308 416.763 429.322 416.548C429.44 416.997 429.518 417.426 429.595 417.836V417.836ZM431.351 414.791C430.961 414.948 430.532 415.085 430.102 415.202C429.79 414.226 429.4 413.192 428.932 412.158C429.4 411.123 429.81 410.108 430.102 409.132C432.794 409.913 434.413 411.084 434.413 412.177C434.413 413.094 433.282 414.07 431.351 414.792V414.791Z" fill="white"/>
<path d="M293.504 292.768L291.09 265.678H317.613L315.197 292.763L304.336 295.777L293.504 292.768Z" fill="white"/>
<path d="M304.352 277.707H308.746L309.049 274.305H304.352V270.982H312.678L312.598 271.874L311.783 281.03H304.352L304.352 277.707Z" fill="#F6F6F6"/>
<path d="M304.372 286.336L304.358 286.34L300.66 285.341L300.423 282.691H297.091L297.555 287.908L304.357 289.796L304.372 289.793L304.372 286.336Z" fill="#E6E6E6"/>
<path d="M308.464 280.889L308.064 285.338L304.36 286.339V289.796L311.167 287.908L311.217 287.346L311.795 280.889H308.464Z" fill="#F6F6F6"/>
<path d="M304.364 270.982V274.305H296.343L296.276 273.558L296.125 271.874L296.045 270.982H304.364ZM304.352 277.707V281.03H300.7L300.634 280.284L300.483 278.599L300.404 277.707H304.352Z" fill="#E6E6E6"/>
<path d="M412.42 314.939L402.491 309.171C401.864 308.813 401.049 308.813 400.418 309.171L390.383 314.939C389.737 315.311 389.28 316.01 389.28 316.758V328.281C389.28 329.028 389.748 329.727 390.395 330.102L393.047 331.608C394.313 332.233 394.761 332.233 395.338 332.233C397.214 332.233 398.286 331.098 398.286 329.117V317.743C398.286 317.585 398.202 317.343 398.044 317.343H396.778C396.62 317.343 396.259 317.585 396.259 317.743V329.117C396.259 329.995 395.465 330.868 393.983 330.127L391.243 328.546C391.15 328.491 391.08 328.388 391.08 328.282V316.759C391.08 316.653 391.206 316.541 391.303 316.485L401.306 310.726C401.398 310.67 401.538 310.67 401.631 310.726L411.511 316.484C411.609 316.54 411.572 316.647 411.572 316.758V328.28C411.572 328.391 411.618 328.498 411.516 328.549L401.589 334.311C401.506 334.362 401.399 334.362 401.306 334.311L398.76 332.791C398.686 332.745 398.593 332.731 398.519 332.745C397.81 333.145 397.68 333.2 397.015 333.431C396.853 333.486 396.611 333.589 397.108 333.867L400.441 335.839C400.761 336.025 401.122 336.123 401.487 336.123C401.859 336.123 402.219 336.025 402.538 335.839L412.419 330.076C413.065 329.7 413.371 329.003 413.371 328.255V316.733C413.371 315.985 413.065 315.288 412.419 314.914L412.42 314.939ZM404.57 326.455C401.93 326.455 401.348 325.726 401.155 324.412C401.108 324.272 401.015 324.105 400.867 324.105H399.576C399.419 324.105 399.288 324.3 399.288 324.458C399.288 326.14 400.202 328.178 404.569 328.178C407.731 328.178 409.543 326.949 409.543 324.774C409.543 322.617 408.086 322.052 405.021 321.646C401.922 321.237 401.607 321.029 401.607 320.302C401.607 319.703 401.872 318.905 404.168 318.905C406.219 318.905 406.974 319.346 407.285 320.727C407.331 320.858 407.429 320.951 407.563 320.951H408.859C408.938 320.951 409.017 320.904 409.073 320.862C409.128 320.802 409.156 320.723 409.147 320.639C408.947 318.258 407.366 317.148 404.168 317.148C401.324 317.148 399.627 318.35 399.627 320.365C399.627 322.55 401.316 323.153 404.046 323.423C407.312 323.744 407.566 324.222 407.566 324.864C407.566 325.981 406.67 326.456 404.569 326.456L404.57 326.455Z" fill="white"/>
<path fill-rule="evenodd" clip-rule="evenodd" d="M234.117 358.992C233.932 359.007 233.751 359.004 233.572 359.053C233.18 359.161 232.832 359.333 232.525 359.598C232.345 359.753 232.188 359.921 232.054 360.118C231.848 360.423 231.707 360.751 231.636 361.121C231.665 361.17 231.694 361.222 231.726 361.274C231.926 361.609 232.126 361.941 232.326 362.275L232.853 363.151C233.015 363.422 233.177 363.692 233.339 363.962L234.094 365.224C234.266 365.511 234.438 365.797 234.61 366.084C234.86 366.502 235.111 366.919 235.361 367.337L236.281 368.875C236.547 369.318 236.812 369.76 237.078 370.203L237.113 370.255C237.152 370.267 237.183 370.256 237.214 370.249C237.564 370.165 237.914 370.081 238.264 369.998C238.832 369.862 239.4 369.727 239.967 369.591L240.856 369.378C241.43 369.241 242.004 369.104 242.578 368.966C243.158 368.828 243.738 368.688 244.318 368.549C244.612 368.478 244.905 368.408 245.198 368.338C245.766 368.203 246.334 368.068 246.901 367.932L248.756 367.49L248.856 367.464L248.829 367.409L248.322 366.694L247.823 365.985L247.288 365.229L246.777 364.505L246.27 363.79L245.748 363.051C245.577 362.809 245.406 362.568 245.235 362.327L244.965 361.945C244.923 361.887 244.89 361.824 244.868 361.755C244.815 361.589 244.876 361.479 244.973 361.397C245.035 361.344 245.108 361.305 245.186 361.283C245.294 361.25 245.404 361.22 245.515 361.199C245.738 361.157 245.963 361.121 246.186 361.084L246.945 360.96C247.105 360.933 247.264 360.905 247.424 360.879C247.641 360.841 247.859 360.805 248.076 360.769C248.287 360.733 248.498 360.698 248.709 360.663L249.4 360.55L249.88 360.47C250.062 360.439 250.245 360.409 250.427 360.379C250.654 360.342 250.881 360.304 251.109 360.269C251.244 360.248 251.38 360.24 251.514 360.279C251.615 360.308 251.707 360.355 251.792 360.416L251.91 360.498C251.922 360.471 251.905 360.456 251.897 360.44C251.727 360.095 251.494 359.798 251.199 359.55C250.924 359.321 250.615 359.151 250.274 359.043C250.073 358.98 249.866 359.01 249.655 358.994L234.117 358.992ZM240.473 379.552C240.463 379.552 240.454 379.477 240.442 379.458C240.196 379.038 239.948 378.587 239.705 378.165C239.398 377.634 239.095 377.101 238.793 376.567C238.471 375.996 238.152 375.424 237.832 374.852C237.528 374.308 237.225 373.763 236.922 373.219C236.739 372.89 236.557 372.56 236.374 372.231L236.326 372.156L236.237 372.174C236.061 372.219 235.886 372.265 235.71 372.311C235.466 372.375 235.222 372.441 234.977 372.505C234.428 372.648 233.879 372.79 233.33 372.932C232.772 373.077 232.19 373.223 231.632 373.367C231.598 373.376 231.668 373.379 231.504 373.384V376.854C231.571 376.962 231.565 376.911 231.569 376.947C231.582 377.05 231.603 377.153 231.621 377.255C231.689 377.634 231.841 377.981 232.06 378.297C232.383 378.761 232.812 379.092 233.338 379.295C233.525 379.367 233.721 379.419 233.922 379.443L234.125 379.497" fill="white"/>
<path fill-rule="evenodd" clip-rule="evenodd" d="M232.156 371.468C232.802 371.314 233.448 371.161 234.094 371.007C234.378 370.94 234.662 370.874 234.945 370.806C235.087 370.772 235.229 370.74 235.37 370.701C235.495 370.668 235.511 370.626 235.446 370.513C235.353 370.35 235.258 370.187 235.164 370.024L234.334 368.593L233.503 367.162C233.222 366.677 232.94 366.192 232.658 365.706C232.417 365.291 232.176 364.876 231.935 364.461C231.83 364.281 231.704 364.101 231.599 363.922C231.579 363.889 231.668 363.85 231.504 363.833V371.61C231.504 371.605 231.578 371.601 231.603 371.595L232.156 371.468ZM252.041 377.027C251.788 377.118 251.535 377.208 251.282 377.299C250.705 377.506 250.129 377.712 249.552 377.919C249.232 378.034 248.912 378.151 248.592 378.265C247.939 378.498 247.285 378.731 246.632 378.963C246.253 379.099 245.875 379.265 245.496 379.401C245.393 379.438 245.291 379.552 245.188 379.552H249.532L249.626 379.498C249.737 379.493 249.845 379.46 249.954 379.44C250.4 379.358 250.799 379.166 251.153 378.884C251.425 378.667 251.646 378.402 251.819 378.099C251.997 377.789 252.103 377.452 252.154 377.098C252.158 377.068 252.168 377.033 252.142 377.002C252.106 376.999 252.074 377.016 252.041 377.027V377.027ZM251.668 371.19C251.477 370.927 251.285 370.666 251.093 370.404C250.829 370.042 250.566 369.679 250.303 369.316C250.195 369.169 250.087 369.024 249.982 368.875C249.951 368.83 249.915 368.819 249.866 368.832L249.838 368.84C249.353 368.958 248.867 369.076 248.382 369.193L247.513 369.404C246.946 369.542 246.378 369.68 245.811 369.818C245.251 369.954 244.69 370.09 244.129 370.227L242.38 370.65C241.807 370.79 241.234 370.93 240.66 371.069L238.997 371.473C238.704 371.544 238.411 371.615 238.118 371.686C238.075 371.697 238.028 371.7 237.983 371.734L238.022 371.809C238.267 372.233 238.513 372.658 238.759 373.082C239.038 373.562 239.316 374.042 239.596 374.521C239.903 375.049 240.211 375.576 240.519 376.102C240.696 376.406 240.872 376.709 241.05 377.011C241.249 377.346 241.448 377.681 241.65 378.014C241.71 378.113 241.779 378.209 241.848 378.302C241.894 378.365 241.952 378.419 242.02 378.46C242.09 378.502 242.165 378.515 242.244 378.497C242.285 378.488 242.325 378.475 242.365 378.461L242.511 378.407C243.042 378.225 243.573 378.043 244.104 377.862C244.518 377.721 244.933 377.581 245.347 377.441C245.759 377.3 246.171 377.162 246.582 377.023L247.808 376.609C248.226 376.467 248.644 376.326 249.061 376.184C249.574 376.01 250.087 375.836 250.6 375.661C251.094 375.494 251.589 375.328 252.084 375.161C252.114 375.151 252.148 375.147 252.173 375.113L252.176 375.041C252.176 374.015 252.176 372.988 252.177 371.962C252.177 371.906 252.162 371.862 252.129 371.818C251.974 371.61 251.822 371.399 251.668 371.19V371.19ZM251.583 361.518C251.468 361.372 251.321 361.326 251.142 361.373C251.063 361.393 250.983 361.407 250.903 361.421C250.642 361.469 250.38 361.516 250.119 361.563C249.736 361.633 249.353 361.703 248.97 361.772C248.667 361.827 248.364 361.881 248.061 361.934L246.844 362.147C246.793 362.155 246.742 362.164 246.693 362.18C246.621 362.203 246.6 362.248 246.633 362.315C246.66 362.371 246.693 362.423 246.729 362.473C246.981 362.819 247.233 363.166 247.486 363.512C247.835 363.989 248.183 364.466 248.532 364.944C248.826 365.347 249.122 365.751 249.417 366.154C249.649 366.472 249.88 366.789 250.113 367.105L250.159 367.161L252.171 366.663L252.176 366.559C252.176 365.162 252.176 363.765 252.177 362.369C252.177 362.307 252.162 362.257 252.123 362.208C251.954 361.995 251.788 361.778 251.62 361.563L251.583 361.518ZM252.124 368.286C251.82 368.359 251.515 368.429 251.203 368.511C251.236 368.57 252.091 369.725 252.141 369.78L252.172 369.797L252.175 369.727L252.175 369.24C252.175 368.958 252.176 368.676 252.175 368.394C252.175 368.359 252.185 368.323 252.162 368.288L252.124 368.286Z" fill="white"/>
<path d="M236.397 420.084C237.224 421.036 236.179 421.891 236.179 421.891C236.179 421.891 238.276 420.808 237.313 419.452C236.414 418.186 235.724 417.558 239.458 415.391C239.458 415.391 233.596 416.855 236.396 420.084H236.397Z" fill="white"/>
<path d="M241.253 420.751C241.253 420.751 240.599 421.132 241.719 421.261C243.076 421.414 243.77 421.396 245.265 421.112C245.265 421.112 245.659 421.358 246.207 421.572C242.854 423.009 238.62 421.488 241.253 420.753V420.751ZM240.845 418.875C240.845 418.875 240.11 419.42 241.229 419.535C242.679 419.684 243.824 419.697 245.806 419.316C245.806 419.316 246.08 419.595 246.51 419.749C242.457 420.935 237.943 419.842 240.842 418.88L240.845 418.875Z" fill="white"/>
<path d="M248.73 422.138C248.73 422.138 249.214 422.539 248.197 422.847C246.262 423.433 240.143 423.61 238.443 422.893C237.833 422.628 238.979 422.258 239.339 422.18C239.715 422.101 239.93 422.115 239.93 422.115C239.25 421.636 235.538 423.055 238.044 423.461C244.879 424.57 250.503 422.963 248.73 422.162V422.138ZM241.568 416.931C241.568 416.931 238.456 417.671 240.466 417.94C241.315 418.052 243.006 418.028 244.582 417.894C245.87 417.787 247.164 417.554 247.164 417.554C247.164 417.554 246.709 417.75 246.381 417.973C243.221 418.805 237.115 418.418 238.873 417.568C240.359 416.849 241.568 416.931 241.568 416.931ZM247.15 420.055C250.363 418.384 248.877 416.779 247.841 416.995C247.585 417.046 247.474 417.093 247.474 417.093C247.474 417.093 247.566 416.945 247.748 416.88C249.799 416.158 251.377 419.007 247.087 420.136C247.087 420.136 247.137 420.09 247.151 420.052L247.15 420.055Z" fill="white"/>
<path d="M245.213 407.501C245.213 407.501 246.991 409.282 243.525 412.02C240.744 414.217 242.892 415.469 243.525 416.9C241.902 415.436 240.711 414.145 241.509 412.946C242.682 411.184 245.931 410.329 245.213 407.501V407.501Z" fill="white"/>
<path d="M241.883 424.581C244.966 424.776 249.703 424.47 249.815 423.012C249.815 423.012 249.602 423.565 247.267 424.004C244.635 424.499 241.387 424.441 239.462 424.125C239.462 424.125 239.857 424.45 241.883 424.584V424.581Z" fill="white"/>
<path d="M342.304 265.889H368.065V291.665H342.304V265.889Z" fill="white"/>
<path d="M365.957 285.518C365.768 284.341 365.002 283.354 362.732 282.432C361.943 282.071 361.064 281.81 360.802 281.212C360.709 280.864 360.697 280.668 360.756 280.458C360.924 279.774 361.74 279.561 362.386 279.757C362.802 279.897 363.197 280.218 363.435 280.73C364.546 280.01 364.543 280.015 365.32 279.519C365.036 279.078 364.884 278.875 364.698 278.687C364.03 277.94 363.118 277.555 361.662 277.584L360.902 277.682C360.175 277.866 359.483 278.248 359.076 278.76C357.857 280.145 358.204 282.568 359.688 283.565C361.15 284.663 363.298 284.913 363.572 285.939C363.839 287.196 362.649 287.603 361.466 287.458C360.594 287.277 360.11 286.834 359.585 286.027C358.62 286.586 358.62 286.586 357.629 287.157C357.864 287.671 358.111 287.904 358.505 288.35C360.371 290.244 365.041 290.151 365.879 287.284C365.912 287.186 366.138 286.529 365.957 285.518V285.518ZM356.309 277.736H353.9L353.889 283.969C353.889 285.295 353.958 286.51 353.742 286.882C353.39 287.615 352.476 287.523 352.06 287.382C351.637 287.174 351.421 286.877 351.172 286.459C351.103 286.338 351.051 286.245 351.035 286.238L349.075 287.438C349.401 288.107 349.881 288.687 350.496 289.065C351.414 289.616 352.648 289.786 353.938 289.489C354.778 289.244 355.503 288.737 355.883 287.965C356.431 286.953 356.313 285.729 356.309 284.373C356.321 282.163 356.309 279.953 356.309 277.736Z" fill="#F6F6F6"/>
<path fill-rule="evenodd" clip-rule="evenodd" d="M266.861 306.923C258.991 306.923 252.61 313.307 252.61 321.184C252.61 327.485 256.693 332.829 262.355 334.715C263.067 334.847 263.33 334.406 263.33 334.028C263.33 333.687 263.33 332.565 263.294 331.374C259.329 332.236 258.492 329.691 258.492 329.691C257.844 328.043 256.91 327.605 256.91 327.605C255.617 326.72 257.006 326.738 257.006 326.738C258.437 326.837 259.191 328.208 259.191 328.208C260.462 330.388 262.524 329.757 263.337 329.393C263.465 328.471 263.835 327.842 264.242 327.486C261.077 327.126 257.749 325.903 257.749 320.439C257.749 318.881 258.306 317.61 259.217 316.611C259.068 316.252 258.582 314.802 259.356 312.837C259.356 312.837 260.553 312.454 263.277 314.299C264.414 313.983 265.633 313.825 266.844 313.819C268.055 313.819 269.275 313.982 270.414 314.299C273.134 312.454 274.329 312.837 274.329 312.837C275.105 314.801 274.617 316.252 274.468 316.611C275.381 317.61 275.934 318.881 275.934 320.439C275.934 325.915 272.6 327.121 269.427 327.474C269.938 327.917 270.393 328.785 270.393 330.115C270.393 332.023 270.393 333.559 270.393 334.028C270.393 334.408 270.649 334.852 271.373 334.713C277.032 332.825 281.11 327.482 281.11 321.184C281.11 313.308 274.728 306.923 266.858 306.923H266.861Z" fill="white"/>
<path d="M257.982 327.856C257.947 327.927 257.84 327.948 257.737 327.899C257.634 327.852 257.578 327.756 257.61 327.685C257.645 327.611 257.751 327.593 257.854 327.643C257.957 327.689 258.018 327.785 257.982 327.86V327.856ZM258.56 328.5C258.492 328.564 258.357 328.536 258.268 328.433C258.176 328.333 258.158 328.202 258.226 328.138C258.297 328.074 258.424 328.103 258.516 328.202C258.608 328.302 258.627 328.433 258.556 328.497L258.56 328.5ZM259.121 329.321C259.032 329.381 258.891 329.321 258.802 329.2C258.713 329.073 258.714 328.919 258.805 328.859C258.894 328.798 259.032 328.859 259.124 328.98C259.209 329.108 259.209 329.26 259.122 329.324L259.121 329.321ZM259.891 330.115C259.813 330.2 259.646 330.179 259.525 330.062C259.401 329.948 259.366 329.781 259.444 329.696C259.522 329.611 259.688 329.637 259.812 329.75C259.936 329.864 259.975 330.027 259.89 330.115H259.891ZM260.953 330.576C260.917 330.686 260.757 330.739 260.597 330.69C260.437 330.64 260.331 330.508 260.362 330.398C260.398 330.284 260.558 330.235 260.72 330.285C260.879 330.334 260.986 330.462 260.954 330.576H260.953ZM262.119 330.661C262.119 330.778 261.988 330.878 261.818 330.878C261.647 330.878 261.509 330.785 261.509 330.671C261.509 330.551 261.644 330.455 261.814 330.455C261.985 330.451 262.123 330.547 262.123 330.664L262.119 330.661ZM263.205 330.476C263.24 330.59 263.109 330.707 262.939 330.739C262.775 330.775 262.618 330.697 262.597 330.583C262.562 330.466 262.697 330.349 262.864 330.317C263.031 330.281 263.183 330.355 263.205 330.473V330.476Z" fill="white"/>
<g filter="url(#filter0_d)">
<path d="M849.608 424.481C858.753 456.034 773.562 512.995 688.353 543.452C603.144 573.909 500.448 577.363 476.062 574.995C451.677 572.627 535.028 571.514 653.184 527.98C771.34 484.445 840.463 392.927 849.608 424.481Z" fill="url(#paint22_linear)"/>
</g>
<g filter="url(#filter1_d)">
<path d="M714.654 106.689C691 123.483 618.385 140.728 546.885 136.728C475.385 132.728 437.913 105.348 448.885 99.7281C459.857 94.1084 521.621 108.658 594.385 80.2281C667.148 51.7986 738.308 89.895 714.654 106.689Z" fill="url(#paint23_linear)"/>
</g>
<defs>
<filter id="filter0_d" x="465.106" y="415.495" width="403.87" height="211.898" filterUnits="userSpaceOnUse" color-interpolation-filters="sRGB">
<feFlood flood-opacity="0" result="BackgroundImageFix"/>
<feColorMatrix in="SourceAlpha" type="matrix" values="0 0 0 0 0 0 0 0 0 0 0 0 0 0 0 0 0 0 127 0"/>
<feOffset dy="10"/>
<feColorMatrix type="matrix" values="0 0 0 0 0.431373 0 0 0 0 0.803922 0 0 0 0 0.482353 0 0 0 0.4 0"/>
<feBlend mode="normal" in2="BackgroundImageFix" result="effect1_dropShadow"/>
<feBlend mode="normal" in="SourceGraphic" in2="effect1_dropShadow" result="shape"/>
</filter>
<filter id="filter1_d" x="447" y="70" width="272.28" height="77.3125" filterUnits="userSpaceOnUse" color-interpolation-filters="sRGB">
<feFlood flood-opacity="0" result="BackgroundImageFix"/>
<feColorMatrix in="SourceAlpha" type="matrix" values="0 0 0 0 0 0 0 0 0 0 0 0 0 0 0 0 0 0 127 0"/>
<feOffset dy="10"/>
<feColorMatrix type="matrix" values="0 0 0 0 0.431373 0 0 0 0 0.803922 0 0 0 0 0.482353 0 0 0 0.4 0"/>
<feBlend mode="normal" in2="BackgroundImageFix" result="effect1_dropShadow"/>
<feBlend mode="normal" in="SourceGraphic" in2="effect1_dropShadow" result="shape"/>
</filter>
<linearGradient id="paint0_linear" x1="401" y1="62.5" x2="-105.5" y2="823.5" gradientUnits="userSpaceOnUse">
<stop stop-color="#6ECD7B"/>
<stop offset="1" stop-color="white"/>
</linearGradient>
<linearGradient id="paint1_linear" x1="1147.5" y1="-357" x2="326.118" y2="637.51" gradientUnits="userSpaceOnUse">
<stop stop-color="white"/>
<stop offset="0.740331" stop-color="#6ECD7B"/>
</linearGradient>
<radialGradient id="paint2_radial" cx="0" cy="0" r="1" gradientUnits="userSpaceOnUse" gradientTransform="translate(644.43 340.4) scale(63.5277 27.9419)">
<stop stop-color="#7F2AFF"/>
<stop offset="1" stop-color="#330080"/>
</radialGradient>
<linearGradient id="paint3_linear" x1="644.876" y1="221.594" x2="646.437" y2="283.865" gradientUnits="userSpaceOnUse">
<stop/>
<stop offset="1" stop-opacity="0"/>
</linearGradient>
<linearGradient id="paint4_linear" x1="647.614" y1="356.203" x2="643.231" y2="281.72" gradientUnits="userSpaceOnUse">
<stop stop-color="#672178"/>
<stop offset="1" stop-color="#E580FF"/>
</linearGradient>
<linearGradient id="paint5_linear" x1="604.625" y1="341.295" x2="637.084" y2="253.774" gradientUnits="userSpaceOnUse">
<stop stop-color="#AA00D4"/>
<stop offset="1" stop-color="#F6D5FF"/>
</linearGradient>
<linearGradient id="paint6_linear" x1="683.418" y1="340.73" x2="650.96" y2="253.209" gradientUnits="userSpaceOnUse">
<stop stop-color="#AA00D4"/>
<stop offset="1" stop-color="#F6D5FF"/>
</linearGradient>
<linearGradient id="paint7_linear" x1="645.943" y1="361.132" x2="645.822" y2="327.203" gradientUnits="userSpaceOnUse">
<stop stop-color="#6C5353"/>
<stop offset="1" stop-color="#AC9393"/>
</linearGradient>
<linearGradient id="paint8_linear" x1="329.831" y1="442.341" x2="330.337" y2="367.767" gradientUnits="userSpaceOnUse">
<stop stop-color="#00AAD4"/>
<stop offset="1" stop-color="#D5F6FF"/>
</linearGradient>
<linearGradient id="paint9_linear" x1="376.371" y1="412.729" x2="358.392" y2="377.277" gradientUnits="userSpaceOnUse">
<stop stop-color="#D5F6FF"/>
<stop offset="1" stop-color="#00AAD4"/>
</linearGradient>
<linearGradient id="paint10_linear" x1="267.485" y1="425.231" x2="307.054" y2="369.866" gradientUnits="userSpaceOnUse">
<stop stop-color="#D5F6FF"/>
<stop offset="1" stop-color="#34B9E9"/>
</linearGradient>
<linearGradient id="paint11_linear" x1="275.524" y1="413.314" x2="247.562" y2="461.718" gradientUnits="userSpaceOnUse">
<stop stop-color="#6C5353"/>
<stop offset="1" stop-color="#AC9393"/>
</linearGradient>
<linearGradient id="paint12_linear" x1="385.893" y1="413.314" x2="413.854" y2="461.718" gradientUnits="userSpaceOnUse">
<stop stop-color="#6C5353"/>
<stop offset="1" stop-color="#AC9393"/>
</linearGradient>
<linearGradient id="paint13_linear" x1="330.709" y1="418.703" x2="330.709" y2="406.922" gradientUnits="userSpaceOnUse">
<stop stop-color="#6C5353"/>
<stop offset="1" stop-color="#AC9393"/>
</linearGradient>
<linearGradient id="paint14_linear" x1="330.695" y1="402.322" x2="330.607" y2="362.396" gradientUnits="userSpaceOnUse">
<stop stop-color="#E6E6E6"/>
<stop offset="1" stop-color="white"/>
</linearGradient>
<linearGradient id="paint15_linear" x1="330.182" y1="423.243" x2="330.295" y2="386.235" gradientUnits="userSpaceOnUse">
<stop/>
<stop offset="1" stop-color="#808080"/>
</linearGradient>
<linearGradient id="paint16_linear" x1="330.695" y1="316.075" x2="331.641" y2="346.214" gradientUnits="userSpaceOnUse">
<stop/>
<stop offset="1" stop-color="#808080"/>
</linearGradient>
<linearGradient id="paint17_linear" x1="293.501" y1="472.463" x2="383.193" y2="427.883" gradientUnits="userSpaceOnUse">
<stop stop-color="#7F2AFF"/>
<stop offset="1" stop-color="#330080"/>
</linearGradient>
<linearGradient id="paint18_linear" x1="275.116" y1="431.755" x2="363.237" y2="468.903" gradientUnits="userSpaceOnUse">
<stop stop-color="#330080"/>
<stop offset="1" stop-color="#7F2AFF"/>
</linearGradient>
<linearGradient id="paint19_linear" x1="322.374" y1="389.037" x2="336.329" y2="389.037" gradientUnits="userSpaceOnUse">
<stop stop-color="#FF7F2A"/>
<stop offset="1" stop-color="#FFCC00"/>
</linearGradient>
<linearGradient id="paint20_linear" x1="334.931" y1="386.165" x2="336.835" y2="386.165" gradientUnits="userSpaceOnUse">
<stop stop-color="#6C5353"/>
<stop offset="1" stop-color="#AC9393"/>
</linearGradient>
<linearGradient id="paint21_linear" x1="335.843" y1="385.88" x2="340.021" y2="387.756" gradientUnits="userSpaceOnUse">
<stop stop-color="#008033"/>
<stop offset="1" stop-color="#87DEAA"/>
</linearGradient>
<linearGradient id="paint22_linear" x1="975.5" y1="372.5" x2="410.651" y2="596.633" gradientUnits="userSpaceOnUse">
<stop offset="0.173113" stop-color="#4CC261"/>
<stop offset="0.509915" stop-color="#6ECD7B"/>
</linearGradient>
<linearGradient id="paint23_linear" x1="1065.5" y1="50" x2="612.263" y2="116.384" gradientUnits="userSpaceOnUse">
<stop stop-color="#4CC261"/>
<stop offset="1" stop-color="#6ECD7B"/>
</linearGradient>
</defs>
</svg>
