<svg width="65" height="65" viewBox="0 0 65 65" fill="none" xmlns="http://www.w3.org/2000/svg">
<circle cx="32.5" cy="32.5" r="32.5" fill="#6ECD7B"/>
<path d="M47.0773 42.6751C47.0316 45.029 45.2611 46.2059 41.7659 46.2059H36.6259C34.3187 46.2059 33.1079 46.804 32.9936 48H31.0063C30.892 46.804 29.6584 46.2059 27.3054 46.2059H22.3025C18.7616 46.2059 16.9683 45.029 16.9226 42.6751H19.1156C19.1613 43.8942 20.2921 44.5038 22.508 44.5038H27.5281C29.9268 44.5038 31.4003 45.0788 31.9487 46.2288H32.0172C32.5312 45.0788 33.9932 44.5038 36.4032 44.5038H41.3548C42.6226 44.5038 43.5249 44.3696 44.0618 44.1011C44.6101 43.8252 44.8957 43.3498 44.9186 42.6751H47.0773Z" fill="white"/>
<path d="M32 16L25.6718 23.5983H18.2478V32.4433L12 39.9432V41.1918L14.7405 41.2582L20.9866 33.8911L21.042 26.7872H26.521L32 20.2104L37.4793 26.7872H42.9599L43.0134 33.8911L49.2598 41.2582L52 41.1918V39.9432L45.7538 32.4433V23.5983H38.3285L32 16Z" fill="white"/>
</svg>
